<svg xmlns="http://www.w3.org/2000/svg" viewBox="0 0 50 50"><path d="M25 2C12.309534 2 2 12.309534 2 25 A 1.0001 1.0001 0 1 0 4 25C4 13.390466 13.390466 4 25 4C32.140358 4 38.427924 7.5627554 42.222656 13L37 13 A 1.0001 1.0001 0 1 0 37 15L46 15L46 6 A 1.0001 1.0001 0 0 0 44.984375 4.9863281 A 1.0001 1.0001 0 0 0 44 6L44 12.052734C39.859137 5.9863595 32.891564 2 25 2 z M 24.984375 9.9863281 A 1.0001 1.0001 0 0 0 24 11L24 13.115234C21.359821 13.396131 19.69199 14.653975 18.892578 15.986328C17.991256 17.488532 18 19 18 19C18 19.5 18.0072 20.843609 18.949219 22.099609C19.891219 23.355609 21.675982 24.459669 24.835938 24.986328C28.428687 25.58512 29.866236 26.719704 30.484375 27.648438C31.102514 28.577171 31 29.329333 31 30C31 30 30.9905 31.246724 30.261719 32.496094C29.540639 33.732231 28.228536 34.964081 25.087891 34.990234C25.086391 34.990247 25.085484 34.990223 25.083984 34.990234 A 1.0001 1.0001 0 0 0 24.917969 34.990234C21.819743 34.961896 20.517704 33.549081 19.769531 32.052734C19.013788 30.541248 19 29 19 29 A 1.0001 1.0001 0 1 0 17 29C17 29 16.98621 30.958752 17.980469 32.947266C18.878175 34.742677 20.822986 36.519517 24 36.863281L24 39 A 1.0001 1.0001 0 1 0 26 39L26 36.880859C29.13346 36.586728 31.067409 35.082544 31.988281 33.503906C33.009482 31.753276 33 30 33 30C33 29.670667 33.154251 28.049282 32.150391 26.541016C31.14653 25.032749 29.083313 23.66688 25.164062 23.013672C22.324018 22.540331 21.108781 21.644391 20.550781 20.900391C19.992781 20.156391 20 19.5 20 19C20 19 20.0087 18.011468 20.607422 17.013672C21.200813 16.024687 22.277889 15.029437 24.947266 15.011719 A 1.0001 1.0001 0 0 0 25.054688 15.011719C27.722207 15.030059 28.799374 16.024999 29.392578 17.013672C29.991256 18.011468 30 19 30 19 A 1.0001 1.0001 0 1 0 32 19C32 19 32.0087 17.488532 31.107422 15.986328C30.30801 14.653975 28.640179 13.396131 26 13.115234L26 11 A 1.0001 1.0001 0 0 0 24.984375 9.9863281 z M 46.984375 23.986328 A 1.0001 1.0001 0 0 0 46 25C46 36.609534 36.609534 46 25 46C17.859642 46 11.572076 42.437245 7.7773438 37L13 37 A 1.0001 1.0001 0 1 0 13 35L4 35L4 44 A 1.0001 1.0001 0 1 0 6 44L6 37.947266C10.140863 44.01364 17.108436 48 25 48C37.690466 48 48 37.690466 48 25 A 1.0001 1.0001 0 0 0 46.984375 23.986328 z"/></svg>