<svg xmlns="http://www.w3.org/2000/svg" viewBox="0 0 32 32"><path d="M6 3L6 29L17.78125 29C19.25 30.828125 21.480469 32 24 32C28.40625 32 32 28.40625 32 24C32 20.289063 29.4375 17.179688 26 16.28125L26 9.59375L19.40625 3 Z M 8 5L18 5L18 11L24 11L24 16C22.597656 16 21.273438 16.363281 20.125 17L11 17L11 19L17.78125 19C17.300781 19.597656 16.886719 20.28125 16.59375 21L11 21L11 23L16.0625 23C16.019531 23.332031 16 23.660156 16 24C16 25.066406 16.210938 26.070313 16.59375 27L8 27 Z M 20 6.40625L22.59375 9L20 9 Z M 11 13L11 15L21 15L21 13 Z M 24 18C27.324219 18 30 20.675781 30 24C30 27.324219 27.324219 30 24 30C20.675781 30 18 27.324219 18 24C18 20.675781 20.675781 18 24 18 Z M 23 20L23 23L20 23L20 25L23 25L23 28L25 28L25 25L28 25L28 23L25 23L25 20Z"/></svg>